<svg xmlns="http://www.w3.org/2000/svg" viewBox="0 0 48 48"><defs><style>.cls-1{fill:#374f68}.cls-4{fill:#ffde76}.cls-5{fill:#fc6}.cls-6{fill:#ffba55}.cls-7{fill:#82bcf4}.cls-8{fill:#6fabe6}.cls-9{fill:#5b9ad8}</style></defs><g id="blockchain"><path class="cls-1" d="M34 17a1 1 0 0 1-.64-1.77l6-5a1 1 0 0 1 1.28 1.54C34.06 17.25 34.5 17 34 17zM8 38a1 1 0 0 1-.64-1.77L12.43 32a1 1 0 0 1 1.28 1.54C8.12 38.2 8.5 38 8 38zM41 39c-.53 0-.21.14-6.72-5.5a1 1 0 0 1 1.3-1.5l6.07 5.26A1 1 0 0 1 41 39zM13.07 16.26c-.5 0-.27.08-5.71-4.49a1 1 0 0 1 1.28-1.54l5.07 4.26a1 1 0 0 1-.64 1.77z"/><path d="M38 24a14 14 0 0 1-14 14c-13.18 0-19-16.59-8.84-24.84A14 14 0 0 1 38 24z" style="fill:#dad7e5"/><path d="M38 24a13.88 13.88 0 0 1-3.16 8.84 14 14 0 0 1-19.68-19.68A14 14 0 0 1 38 24z" style="fill:#edebf2"/><path class="cls-4" d="m47 4-5 3-5-3 5-3 5 3z"/><path class="cls-5" d="M47 4v6l-5 3V7l5-3z"/><path class="cls-6" d="M42 7v6l-5-3V4l5 3z"/><path class="cls-7" d="M11 4 6 7 1 4l5-3 5 3z"/><path class="cls-8" d="M11 4v6l-5 3V7l5-3z"/><path class="cls-9" d="M6 7v6l-5-3V4l5 3z"/><path class="cls-7" d="m47 38-5 3-5-3 5-3 5 3z"/><path class="cls-8" d="M47 38v6l-5 3v-6l5-3z"/><path class="cls-9" d="M42 41v6l-5-3v-6l5 3z"/><path class="cls-4" d="m11 38-5 3-5-3 5-3 5 3z"/><path class="cls-6" d="M6 41v6l-5-3v-6l5 3z"/><path class="cls-5" d="M11 38v6l-5 3v-6l5-3z"/><path class="cls-4" d="m31 20-7 4-7-4 7-4 7 4z"/><path class="cls-5" d="M31 20v8l-7 4v-8l7-4z"/><path class="cls-6" d="M24 24v8l-7-4v-8l7 4z"/></g></svg>